<?xml version="1.0" encoding="utf-8"?>
<!-- Generator: Adobe Illustrator 17.0.0, SVG Export Plug-In . SVG Version: 6.00 Build 0)  -->
<!DOCTYPE svg PUBLIC "-//W3C//DTD SVG 1.1//EN" "http://www.w3.org/Graphics/SVG/1.1/DTD/svg11.dtd">
<svg version="1.1" id="Capa_1" xmlns="http://www.w3.org/2000/svg" xmlns:xlink="http://www.w3.org/1999/xlink" x="0px" y="0px"
	 width="400px" height="250px" viewBox="0 0 400 250" enable-background="new 0 0 400 250" xml:space="preserve">
<rect x="0.978" y="0.656" fill="#F4EDCB" width="399.022" height="249.344"/>
<g>
	<path fill="#76531A" d="M199.893,165.742c0.006-0.048,0.006-0.098,0.02-0.144c0.005-0.018,0.039-0.028,0.059-0.041
		c0.044,0.057,0.089,0.114,0.134,0.172C200.036,165.733,199.964,165.738,199.893,165.742z"/>
	<g>
		<g>
			<path fill="#76531A" d="M337.557,159.934c4.868,0,8.936,3.241,10.286,7.668c4.159-0.132,10.345-3.119,17.817-3.119
				c3.454,0,6.254,2.8,6.254,6.254c0,3.454-2.8,6.254-6.254,6.254c-7.505,0-13.571-3.465-17.631-3.717
				c-1.145,4.736-5.384,8.266-10.472,8.266H62.236c-4.858,0-8.919-3.228-10.277-7.64c-4.157,0.211-10.255,3.091-17.618,3.091
				c-3.454,0-6.254-2.8-6.254-6.254c0-3.454,2.8-6.254,6.254-6.254c7.393,0,13.374,3.341,17.434,3.684
				c1.158-4.719,5.386-8.232,10.462-8.232H337.557 M337.557,155.443H62.236c-5.524,0-10.465,2.947-13.152,7.528
				c-0.492-0.148-1.004-0.309-1.525-0.472c-3.566-1.117-8.004-2.508-13.218-2.508c-5.925,0-10.745,4.82-10.745,10.745
				c0,5.925,4.82,10.745,10.745,10.745c4.973,0,9.328-1.134,12.828-2.045c0.749-0.195,1.481-0.386,2.169-0.55
				c2.74,4.388,7.544,7.144,12.899,7.144h275.321c5.557,0,10.516-2.974,13.192-7.592c0.539,0.162,1.106,0.34,1.683,0.522
				c3.57,1.124,8.013,2.522,13.227,2.522c5.925,0,10.745-4.82,10.745-10.745c0-5.925-4.82-10.745-10.745-10.745
				c-4.974,0-9.336,1.142-12.84,2.059c-0.807,0.211-1.595,0.417-2.328,0.592C347.758,158.221,342.939,155.443,337.557,155.443
				L337.557,155.443z"/>
			<g>
				<path fill="#76531A" d="M85.998,177.954c-0.245,0-0.451-0.083-0.618-0.25c-0.168-0.167-0.251-0.373-0.251-0.618V165.78
					c0-0.256,0.083-0.464,0.251-0.625c0.167-0.161,0.372-0.243,0.618-0.243h3.339c0.835,0,1.576,0.184,2.221,0.551
					s1.149,0.877,1.511,1.527c0.362,0.652,0.543,1.4,0.543,2.246c0,0.813-0.181,1.537-0.543,2.172
					c-0.362,0.635-0.866,1.129-1.511,1.486s-1.386,0.534-2.221,0.534h-2.471v3.657c0,0.244-0.081,0.451-0.242,0.618
					C86.463,177.87,86.254,177.954,85.998,177.954z M86.866,171.825h2.471c0.512,0,0.963-0.11,1.353-0.334
					c0.389-0.222,0.695-0.529,0.918-0.919c0.223-0.388,0.334-0.834,0.334-1.336c0-0.534-0.111-1.004-0.334-1.41
					s-0.529-0.726-0.918-0.961c-0.39-0.233-0.841-0.351-1.353-0.351h-2.471V171.825z"/>
				<path fill="#76531A" d="M108.181,177.954c-0.312,0-0.551-0.133-0.718-0.4c-0.167-0.267-0.184-0.551-0.05-0.853l4.692-11.204
					c0.168-0.39,0.44-0.586,0.819-0.586c0.401,0,0.674,0.195,0.818,0.586l4.709,11.238c0.122,0.311,0.103,0.593-0.059,0.843
					c-0.161,0.25-0.404,0.375-0.726,0.375c-0.167,0-0.326-0.047-0.476-0.142c-0.151-0.095-0.26-0.226-0.326-0.392l-4.142-10.286
					h0.468l-4.208,10.286c-0.078,0.178-0.192,0.313-0.342,0.402C108.49,177.91,108.336,177.954,108.181,177.954z M109.066,175.081
					l0.668-1.435h6.546l0.668,1.435H109.066z"/>
				<path fill="#76531A" d="M138.404,178.12c-0.713,0-1.392-0.112-2.037-0.334c-0.646-0.224-1.208-0.534-1.687-0.936
					c-0.479-0.4-0.83-0.862-1.052-1.385c-0.112-0.233-0.109-0.451,0.008-0.652c0.118-0.199,0.315-0.328,0.593-0.383
					c0.201-0.045,0.398-0.015,0.593,0.091c0.194,0.106,0.342,0.265,0.442,0.476c0.134,0.279,0.352,0.534,0.659,0.769
					c0.306,0.233,0.676,0.423,1.111,0.567c0.434,0.146,0.89,0.218,1.369,0.218c0.534,0,1.027-0.083,1.477-0.25
					c0.451-0.167,0.816-0.409,1.094-0.728c0.278-0.316,0.417-0.709,0.417-1.177c0-0.589-0.231-1.118-0.693-1.586
					c-0.462-0.468-1.222-0.756-2.28-0.868c-1.381-0.135-2.465-0.54-3.256-1.219c-0.79-0.68-1.185-1.52-1.185-2.522
					c0-0.735,0.206-1.357,0.618-1.87c0.411-0.512,0.971-0.902,1.678-1.169c0.707-0.267,1.494-0.4,2.362-0.4
					c0.679,0,1.273,0.095,1.779,0.284c0.507,0.19,0.949,0.451,1.327,0.785c0.379,0.334,0.707,0.73,0.985,1.186
					c0.155,0.244,0.22,0.476,0.192,0.692c-0.028,0.218-0.136,0.387-0.326,0.51c-0.211,0.133-0.44,0.161-0.684,0.083
					c-0.245-0.078-0.429-0.222-0.551-0.434c-0.178-0.322-0.395-0.595-0.651-0.819c-0.257-0.222-0.557-0.398-0.902-0.525
					c-0.345-0.129-0.751-0.193-1.219-0.193c-0.824-0.011-1.514,0.142-2.071,0.46c-0.556,0.316-0.835,0.804-0.835,1.461
					c0,0.334,0.086,0.654,0.259,0.959c0.172,0.307,0.49,0.57,0.952,0.794c0.461,0.222,1.127,0.379,1.996,0.466
					c1.325,0.135,2.357,0.538,3.097,1.211c0.74,0.675,1.111,1.562,1.111,2.664c0,0.635-0.131,1.184-0.392,1.652
					c-0.262,0.468-0.613,0.86-1.053,1.177c-0.44,0.318-0.941,0.555-1.503,0.711C139.586,178.043,139.004,178.12,138.404,178.12z"/>
				<path fill="#76531A" d="M158.792,166.515c-0.233,0-0.425-0.074-0.576-0.226c-0.15-0.15-0.226-0.341-0.226-0.576
					c0-0.233,0.076-0.424,0.226-0.576c0.151-0.15,0.343-0.226,0.576-0.226h8.933c0.234,0,0.426,0.076,0.576,0.226
					c0.151,0.152,0.226,0.343,0.226,0.576c0,0.235-0.075,0.426-0.226,0.576c-0.15,0.152-0.342,0.226-0.576,0.226H158.792z
					 M163.267,177.954c-0.244,0-0.451-0.083-0.618-0.25c-0.167-0.167-0.25-0.373-0.25-0.618v-12.174h1.737v12.174
					c0,0.244-0.084,0.451-0.251,0.618C163.718,177.87,163.511,177.954,163.267,177.954z"/>
				<path fill="#76531A" d="M185.047,177.954c-0.246,0-0.451-0.083-0.618-0.25c-0.169-0.167-0.252-0.373-0.252-0.618V165.78
					c0-0.256,0.083-0.464,0.252-0.625c0.167-0.161,0.371-0.243,0.618-0.243h7.546c0.256,0,0.462,0.076,0.618,0.226
					c0.157,0.152,0.235,0.349,0.235,0.593c0,0.233-0.078,0.423-0.235,0.569c-0.155,0.144-0.362,0.216-0.618,0.216h-6.678v4.057
					h4.793c0.256,0,0.461,0.076,0.618,0.226c0.155,0.152,0.233,0.343,0.233,0.576c0,0.235-0.078,0.426-0.233,0.576
					c-0.157,0.152-0.362,0.226-0.618,0.226h-4.793v4.175h6.678c0.256,0,0.462,0.072,0.618,0.218
					c0.157,0.144,0.235,0.334,0.235,0.567c0,0.246-0.078,0.443-0.235,0.593c-0.155,0.15-0.362,0.226-0.618,0.226H185.047z"/>
				<path fill="#76531A" d="M210.221,177.954c-0.246,0-0.449-0.083-0.61-0.25c-0.161-0.167-0.243-0.373-0.243-0.618V165.78
					c0-0.244,0.083-0.449,0.25-0.618c0.167-0.167,0.368-0.25,0.603-0.25c0.244,0,0.449,0.083,0.618,0.25
					c0.167,0.169,0.25,0.373,0.25,0.618v10.438h6.043c0.246,0,0.451,0.083,0.618,0.25c0.169,0.167,0.252,0.373,0.252,0.618
					s-0.083,0.451-0.252,0.618c-0.167,0.167-0.371,0.25-0.618,0.25H210.221z"/>
				<path fill="#76531A" d="M234.616,177.954c-0.244,0-0.451-0.083-0.618-0.25c-0.167-0.167-0.25-0.373-0.25-0.618V165.78
					c0-0.256,0.083-0.464,0.25-0.625c0.167-0.161,0.373-0.243,0.618-0.243h7.548c0.256,0,0.462,0.076,0.618,0.226
					c0.155,0.152,0.233,0.349,0.233,0.593c0,0.233-0.078,0.423-0.233,0.569c-0.155,0.144-0.362,0.216-0.618,0.216h-6.678v4.057
					h4.791c0.256,0,0.462,0.076,0.618,0.226c0.157,0.152,0.235,0.343,0.235,0.576c0,0.235-0.078,0.426-0.235,0.576
					c-0.155,0.152-0.362,0.226-0.618,0.226h-4.791v4.175h6.678c0.256,0,0.462,0.072,0.618,0.218
					c0.155,0.144,0.233,0.334,0.233,0.567c0,0.246-0.078,0.443-0.233,0.593s-0.362,0.226-0.618,0.226H234.616z"/>
				<path fill="#76531A" d="M259.807,177.954c-0.244,0-0.451-0.083-0.618-0.25c-0.167-0.167-0.25-0.373-0.25-0.618V165.78
					c0-0.256,0.083-0.464,0.25-0.625c0.167-0.161,0.373-0.243,0.618-0.243h3.006c0.836,0,1.577,0.176,2.221,0.527
					c0.646,0.351,1.15,0.832,1.512,1.444c0.362,0.612,0.542,1.325,0.542,2.138c0,0.756-0.18,1.431-0.542,2.02
					s-0.866,1.052-1.512,1.385c-0.644,0.335-1.385,0.502-2.221,0.502h-2.136v4.158c0,0.244-0.082,0.451-0.243,0.618
					C260.274,177.87,260.063,177.954,259.807,177.954z M260.677,171.325h2.136c0.514,0,0.963-0.097,1.353-0.292
					c0.39-0.195,0.695-0.468,0.919-0.819c0.222-0.351,0.334-0.749,0.334-1.194c0-0.491-0.112-0.925-0.334-1.302
					c-0.224-0.379-0.529-0.675-0.919-0.885c-0.39-0.212-0.84-0.318-1.353-0.318h-2.136V171.325z M266.738,177.954
					c-0.155,0-0.298-0.034-0.426-0.1c-0.127-0.066-0.235-0.172-0.324-0.316l-3.006-4.844l1.685-0.483l2.74,4.408
					c0.199,0.324,0.227,0.627,0.083,0.91C267.344,177.811,267.094,177.954,266.738,177.954z"/>
				<path fill="#76531A" d="M284.28,177.954c-0.244,0-0.451-0.083-0.618-0.25c-0.167-0.167-0.25-0.373-0.25-0.618V165.78
					c0-0.256,0.083-0.464,0.25-0.625c0.167-0.161,0.373-0.243,0.618-0.243c0.256,0,0.466,0.081,0.627,0.243
					c0.161,0.161,0.243,0.37,0.243,0.625v11.306c0,0.244-0.081,0.451-0.243,0.618C284.746,177.87,284.536,177.954,284.28,177.954z"
					/>
				<path fill="#76531A" d="M301.692,177.954c-0.313,0-0.551-0.133-0.718-0.4c-0.167-0.267-0.184-0.551-0.049-0.853l4.692-11.204
					c0.167-0.39,0.44-0.586,0.817-0.586c0.402,0,0.675,0.195,0.819,0.586l4.709,11.238c0.123,0.311,0.102,0.593-0.059,0.843
					c-0.161,0.25-0.404,0.375-0.726,0.375c-0.167,0-0.326-0.047-0.476-0.142c-0.152-0.095-0.26-0.226-0.326-0.392l-4.141-10.286
					h0.466l-4.207,10.286c-0.078,0.178-0.191,0.313-0.343,0.402C302.001,177.91,301.848,177.954,301.692,177.954z M302.577,175.081
					l0.667-1.435h6.547l0.667,1.435H302.577z"/>
			</g>
		</g>
		<g>
			<path fill="#76531A" d="M232.879,199.243c0.132,3.207,1.14,5.855,1.551,6.808c0.932-1.069,3.903-4.761,4.457-9.133
				c0.51-4.029-1.535-5.051-2.439-5.301l-0.291-0.082l0.104-0.285c0.17-0.477,0.334-0.965,0.499-1.488h-1.442
				c-5.208,18.104-22.404,24.147-28.609,24.95c-3.223,0.414-8.469,3.333-10.097,6.123c1.299,0.441,2.818,0.672,4.418,0.672
				c2.368,0,4.67-0.51,6.145-1.368c2.5-1.45,3.311-3.634,3.009-5.051l-0.06-0.285l0.285-0.049c0.554-0.093,1.661-0.384,3.125-0.921
				l0.888-0.326l-0.565,0.756c-2.05,2.741-2.938,5.665-3.207,6.721c1.392-0.274,6.003-1.384,9.111-4.506
				c3.262-3.281,1.524-5.479,1.146-5.887l-0.236-0.247l0.291-0.184c1.135-0.718,2.242-1.497,3.284-2.311l0.746-0.578l-0.307,0.891
				c-1.085,3.193-1.047,6.2-0.987,7.277c1.244-0.685,5.301-3.141,7.313-7.061c2.116-4.114-0.208-5.685-0.696-5.959l-0.291-0.162
				l0.208-0.26c0.762-0.932,1.48-1.905,2.132-2.897l0.482-0.726L232.879,199.243z"/>
			<path fill="#76531A" d="M233.123,190.23c0,0,0.957,9.44-10.468,6.851C228.477,187.197,233.123,190.23,233.123,190.23z"/>
			<path fill="#76531A" d="M227.898,200.116c0,0-2.175,9.236-12.13,3.062C224.496,195.733,227.898,200.116,227.898,200.116z"/>
			<path fill="#76531A" d="M219.794,207.67c0,0-5.287,7.879-12.432-1.405C218.152,202.371,219.794,207.67,219.794,207.67z"/>
			<path fill="#76531A" d="M209.462,212.017c0,0-7.542,5.758-11.318-5.332C209.614,206.471,209.462,212.017,209.462,212.017z"/>
			<path fill="#76531A" d="M197.901,212.648c0,0-9.154,2.498-8.481-9.197C200.128,207.566,197.901,212.648,197.901,212.648z"/>
			<path fill="#76531A" d="M187.705,209.458c0,0-9.488-0.033-5.722-11.126C191.206,205.153,187.705,209.458,187.705,209.458z"/>
			<path fill="#76531A" d="M178.615,202.98c-7.599-3.932-3.477-9.355-2.339-12.255c0.118-0.3-0.07-1.241-0.07-1.241l0.704,0
				C183.341,198.983,178.615,202.98,178.615,202.98z"/>
			<path fill="#76531A" d="M198.082,215.716c0,2.967-6.009,7.273-15.313,1.082C192.707,210.451,198.082,215.716,198.082,215.716z"/>
			<path fill="#76531A" d="M186.327,212.534c-1.044,2.777-8.184,4.693-14.714-4.377C183.15,205.714,186.327,212.534,186.327,212.534
				z"/>
			<path fill="#76531A" d="M176.524,205.35c-7.055,4.212-12.562-4.949-15.492-15.866h0.61c0,0,0.527,2.108,0.94,2.753
				C166.84,198.881,173.463,196.762,176.524,205.35z"/>
			<path fill="#76531A" d="M172.165,197.052c0,0-6.802-1.141-7.334-7.568c2.947,0,7.362,0,7.362,0S174.233,192.157,172.165,197.052z
				"/>
		</g>
	</g>
	<g>
		<path fill="#76531A" d="M77.256,68.706c-2.659-1.758-6.691-2.636-12.097-2.636s-10.364,1.263-14.869,3.784
			c-3.037,1.701-5.643,3.81-7.84,6.307v-2.523c0-2.251-0.564-3.941-1.689-5.068c-1.128-1.126-2.817-1.689-5.069-1.689
			c-2.162,0-3.831,0.586-5.001,1.757c-1.172,1.172-1.757,2.839-1.757,5.001v60.421c0,2.253,0.585,3.942,1.757,5.067
			c1.17,1.129,2.839,1.69,5.001,1.69c2.252,0,3.942-0.586,5.069-1.757c1.126-1.171,1.689-2.839,1.689-5.001V94.59
			c0-4.145,1.328-7.57,3.987-10.273c2.657-2.703,6.286-4.549,10.881-5.542c4.596-0.99,9.777-0.899,15.544,0.271
			c1.17,0.27,2.251,0.317,3.244,0.135c0.99-0.179,1.869-0.608,2.635-1.284c0.765-0.676,1.285-1.643,1.555-2.906
			C80.927,72.557,79.913,70.462,77.256,68.706z"/>
		<path fill="#76531A" d="M142.515,71.274c-5.589-3.289-11.894-4.934-18.923-4.934s-13.361,1.645-18.991,4.934
			c-5.633,3.291-10.093,7.773-13.382,13.449c-3.29,5.677-4.934,12.076-4.934,19.194c0,7.119,1.508,13.496,4.528,19.127
			c3.019,5.632,7.141,10.093,12.368,13.381c5.226,3.29,11.129,4.933,17.708,4.933c6.577,0,12.48-1.643,17.707-4.933
			c3.212-2.021,6.003-4.489,8.381-7.395v5.03c0,1.982,0.653,3.627,1.959,4.933c1.306,1.308,2.951,1.96,4.934,1.96
			c1.981,0,3.626-0.652,4.934-1.96c1.305-1.306,1.96-2.951,1.96-4.933v-30.143c0-7.118-1.645-13.518-4.933-19.194
			C152.539,79.046,148.102,74.564,142.515,71.274z M135.892,125.881c-3.605,2.21-7.704,3.313-12.3,3.313
			c-4.507,0-8.584-1.103-12.233-3.313c-3.65-2.206-6.535-5.225-8.651-9.056c-2.119-3.829-3.176-8.131-3.176-12.908
			c0-4.867,1.057-9.213,3.176-13.044c2.116-3.829,5.001-6.848,8.651-9.057c3.649-2.207,7.725-3.312,12.233-3.312
			c4.596,0,8.695,1.105,12.3,3.312c3.604,2.209,6.442,5.228,8.516,9.057c2.072,3.831,3.109,8.177,3.109,13.044
			c0,4.777-1.037,9.079-3.109,12.908C142.334,120.656,139.495,123.675,135.892,125.881z"/>
		<path fill="#76531A" d="M271.572,69.584c-3.966-2.251-8.515-3.38-13.652-3.38c-5.858,0-11.062,1.263-15.612,3.785
			c-3.206,1.777-5.897,4.046-8.096,6.784c-2.021-3.034-4.567-5.436-7.652-7.189c-3.966-2.251-8.515-3.38-13.652-3.38
			c-5.318,0-10.048,1.263-14.192,3.785c-1.743,1.061-3.316,2.303-4.74,3.705c-0.043-1.971-0.667-3.569-1.883-4.786
			c-1.264-1.261-2.93-1.893-5.001-1.893c-1.984,0-3.629,0.632-4.935,1.893c-1.306,1.262-1.959,2.929-1.959,5.001v60.15
			c0,1.982,0.654,3.627,1.959,4.933c1.306,1.308,2.951,1.96,4.935,1.96c2.071,0,3.737-0.652,5.001-1.96
			c1.26-1.306,1.891-2.951,1.891-4.933V95.942c0-5.046,1.531-9.191,4.597-12.435c3.062-3.244,6.938-4.866,11.624-4.866
			c4.505,0,8.154,1.375,10.948,4.122c2.793,2.751,4.19,6.962,4.19,12.639v38.658c0,1.982,0.654,3.627,1.961,4.933
			c1.304,1.308,2.951,1.96,4.933,1.96c2.071,0,3.739-0.652,5.001-1.96c1.262-1.306,1.893-2.951,1.893-4.933V95.942
			c0-5.046,1.508-9.191,4.527-12.435c3.019-3.244,6.872-4.866,11.558-4.866c4.505,0,8.154,1.375,10.948,4.122
			c2.791,2.751,4.19,6.962,4.19,12.639v38.658c0,1.982,0.654,3.627,1.96,4.933c1.306,1.308,2.951,1.96,4.935,1.96
			c2.071,0,3.739-0.652,5.001-1.96c1.26-1.306,1.893-2.951,1.893-4.933V95.402c0-6.219-1.105-11.511-3.313-15.883
			C278.622,75.149,275.536,71.837,271.572,69.584z"/>
		<path fill="#76531A" d="M336.586,55.256c1.893,0,3.468-0.63,4.732-1.893l13.112-13.111c0.72-0.629,1.217-1.351,1.486-2.162
			c0.271-0.811,0.406-1.667,0.406-2.569c0-1.981-0.631-3.649-1.891-5.001c-1.264-1.352-2.93-2.028-5.003-2.028
			c-1.891,0-3.513,0.676-4.865,2.028l-13.247,13.247c-1.082,1.172-1.622,2.703-1.622,4.596c0,1.983,0.652,3.629,1.959,4.934
			C332.959,54.604,334.604,55.256,336.586,55.256z"/>
		<path fill="#76531A" d="M369.299,106.958c1.169-1.126,1.757-2.545,1.757-4.257c0-7.118-1.33-13.403-3.987-18.856
			c-2.661-5.451-6.511-9.732-11.558-12.841c-5.047-3.109-11.084-4.664-18.113-4.664c-7.118,0-13.427,1.601-18.922,4.798
			c-5.498,3.2-9.799,7.616-12.909,13.247c-3.108,5.633-4.664,12.145-4.664,19.532c0,7.299,1.643,13.766,4.935,19.396
			c3.288,5.634,7.84,10.049,13.652,13.247c5.812,3.201,12.456,4.798,19.936,4.798c4.145,0,8.494-0.764,13.044-2.297
			c4.55-1.531,8.357-3.515,11.422-5.949c1.531-1.169,2.251-2.568,2.164-4.19c-0.091-1.622-0.902-3.108-2.433-4.461
			c-1.173-0.989-2.547-1.463-4.124-1.417c-1.577,0.045-3.042,0.563-4.393,1.554c-1.804,1.351-4.169,2.547-7.095,3.582
			c-2.93,1.037-5.791,1.554-8.585,1.554c-5.136,0-9.688-1.126-13.652-3.379c-3.966-2.251-7.074-5.316-9.326-9.191
			c-1.509-2.593-2.5-5.436-2.998-8.516h51.389C366.638,108.648,368.126,108.086,369.299,106.958z M324.219,81.344
			c3.65-2.251,8.043-3.38,13.178-3.38c4.506,0,8.335,1.038,11.49,3.109c3.153,2.074,5.587,4.889,7.3,8.448
			c1.216,2.531,2.015,5.305,2.412,8.313h-44.998c0.463-2.578,1.224-4.992,2.305-7.232C317.798,86.682,320.569,83.597,324.219,81.344
			z"/>
	</g>
</g>
</svg>
